<svg width="80" height="80" viewBox="0 0 80 80" fill="none" xmlns="http://www.w3.org/2000/svg">
    <path d="M64.0299 30.9735L65.6358 28.6198C66.3395 29.3298 67.7751 31.1832 67.8887 32.9164C68.0306 35.0829 66.6248 36.1934 64.2533 34.9203C62.356 33.9017 63.3138 31.8647 64.0299 30.9735Z" fill="#00FF19" stroke="black"/>
    <path d="M51.4973 56L54.9973 57.0123C54.8074 57.9937 54.0855 60.2242 52.7178 61.2948C51.0082 62.6331 49.2985 62.0978 49.0136 59.4212C48.7857 57.2799 51.4973 56 51.4973 56Z" fill="#00FF19" stroke="black"/>
    <path d="M20.5996 55.968L21.2991 58.6494C20.3029 58.7183 17.9674 58.6021 16.5957 57.5852C14.881 56.3142 14.9793 54.5702 17.4993 53.6265C19.5153 52.8715 20.4062 54.8729 20.5996 55.968Z" fill="#00FF19" stroke="black"/>
    <path d="M36.5098 59.8962L38.792 61.6022C38.0523 62.2745 36.1386 63.6288 34.4022 63.6675C32.2316 63.7158 31.1827 62.2634 32.557 59.949C33.6565 58.0975 35.6503 59.1423 36.5098 59.8962Z" fill="#00FF19" stroke="black"/>
    <path d="M61.8415 46.2934L64.2797 44.8188C64.625 45.7569 65.1616 48.039 64.5453 49.6629C63.775 51.6928 62.035 52.1195 60.4061 49.9766C59.1029 48.2624 60.82 46.8068 61.8415 46.2934Z" fill="#00FF19" stroke="black"/>
</svg>
